<?xml version="1.0" encoding="UTF-8" standalone="no"?>
<!-- Created with Inkscape (http://www.inkscape.org/) -->

<svg
   xmlns:dc="http://purl.org/dc/elements/1.1/"
   xmlns:cc="http://creativecommons.org/ns#"
   xmlns:rdf="http://www.w3.org/1999/02/22-rdf-syntax-ns#"
   xmlns:svg="http://www.w3.org/2000/svg"
   xmlns="http://www.w3.org/2000/svg"
   xmlns:sodipodi="http://sodipodi.sourceforge.net/DTD/sodipodi-0.dtd"
   xmlns:inkscape="http://www.inkscape.org/namespaces/inkscape"
   width="200"
   height="140"
   viewBox="0 0 200 140"
   id="svg2"
   version="1.1"
   inkscape:version="0.91 r13725"
   sodipodi:docname="logo.svg">
  <defs
     id="defs4" />
  <sodipodi:namedview
     id="base"
     pagecolor="#ffffff"
     bordercolor="#666666"
     borderopacity="1.0"
     inkscape:pageopacity="0.0"
     inkscape:pageshadow="2"
     inkscape:zoom="1.979899"
     inkscape:cx="257.27163"
     inkscape:cy="161.31151"
     inkscape:document-units="px"
     inkscape:current-layer="layer1"
     showgrid="false"
     units="px"
     inkscape:window-width="1920"
     inkscape:window-height="1017"
     inkscape:window-x="-8"
     inkscape:window-y="-8"
     inkscape:window-maximized="1" />
  <metadata
     id="metadata7">
    <rdf:RDF>
      <cc:Work
         rdf:about="">
        <dc:format>image/svg+xml</dc:format>
        <dc:type
           rdf:resource="http://purl.org/dc/dcmitype/StillImage" />
        <dc:title></dc:title>
      </cc:Work>
    </rdf:RDF>
  </metadata>
  <g
     inkscape:label="Layer 1"
     inkscape:groupmode="layer"
     id="layer1"
     transform="translate(0,-912.36216)">
    <g
       id="g4300"
       style="fill:#ffffff;fill-opacity:0.49803922"
       transform="matrix(0.81613501,0,0,0.80977224,-253.4174,360.55966)">
      <path
         id="rect4226-0"
         d="m 334.11523,732.03906 c -4.65707,0.12259 -8.71683,3.48787 -9.55859,8.26172 l -13.89258,78.78516 c -0.96201,5.45583 2.6555,10.62197 8.11133,11.58398 l 118.9082,20.9668 c -32.3333,-17.48729 -63.70938,-36.90234 -95.76171,-54.94336 -9.10172,-3.34732 -19.15732,-11.59866 -16.68555,-22.45313 6.75442,-13.68307 14.55141,-26.85307 22.32031,-40.03711 l -11.41602,-2.01367 c -0.68197,-0.12025 -1.36009,-0.1679 -2.02539,-0.15039 z"
         style="opacity:1;fill:#ffffff;fill-opacity:0.49803922;stroke:none;stroke-width:5;stroke-linecap:round;stroke-linejoin:round;stroke-miterlimit:4;stroke-dasharray:none;stroke-dashoffset:0;stroke-opacity:1"
         inkscape:connector-curvature="0" />
      <path
         id="rect4226-1"
         d="m 381.19336,698.39648 c -3.5448,-0.0957 -7.01945,1.70739 -8.92383,5.00586 l -40,69.28125 c -2.77,4.79778 -1.13762,10.89016 3.66016,13.66016 l 105.29101,60.78906 c -24.96894,-27.99154 -48.2633,-57.58064 -72.70312,-86.06836 -7.40797,-6.25843 -14.03515,-17.45217 -8,-26.80664 10.84584,-10.37449 22.46981,-19.9364 34.08594,-29.50781 l -8.67383,-5.00781 c -1.49931,-0.86563 -3.12506,-1.30218 -4.73633,-1.34571 z"
         style="opacity:1;fill:#ffffff;fill-opacity:0.49803922;stroke:none;stroke-width:5;stroke-linecap:round;stroke-linejoin:round;stroke-miterlimit:4;stroke-dasharray:none;stroke-dashoffset:0;stroke-opacity:1"
         inkscape:connector-curvature="0" />
      <path
         id="rect4226-7"
         d="m 435.28516,681.42969 c -2.23869,0.0192 -4.4851,0.79165 -6.3418,2.34961 l -61.2832,51.42187 c -4.24389,3.56105 -4.79347,9.84596 -1.23243,14.08985 l 81.42579,97.0371 c -14.7466,-36.36254 -26.98573,-73.82153 -40.82032,-110.57617 -4.8207,-8.41467 -7.21825,-21.1996 1.65235,-27.92578 13.21308,-5.80771 26.84552,-10.66299 40.49023,-15.49219 l -6.14453,-7.32226 c -2.00309,-2.38719 -4.86778,-3.6067 -7.74609,-3.58203 z"
         style="opacity:1;fill:#ffffff;fill-opacity:0.49803922;stroke:none;stroke-width:5;stroke-linecap:round;stroke-linejoin:round;stroke-miterlimit:4;stroke-dasharray:none;stroke-dashoffset:0;stroke-opacity:1"
         inkscape:connector-curvature="0" />
      <path
         id="rect4226-9"
         d="m 493.20312,683.19531 c -0.98344,0.0479 -1.97897,0.24239 -2.95507,0.59766 l -75.17383,27.36133 c -5.2059,1.89479 -7.87136,7.61246 -5.97656,12.81836 l 40.83398,112.19726 c -1.07537,-37.10402 0.0741,-74.34768 -0.33203,-111.48828 -1.65199,-9.55598 0.46739,-22.39111 11.10351,-25.67773 15.10809,-0.98429 30.29008,-0.82684 45.47266,-0.69141 l -3.10937,-8.54297 c -1.53952,-4.22979 -5.60168,-6.78194 -9.86329,-6.57422 z"
         style="opacity:1;fill:#ffffff;fill-opacity:0.49803922;stroke:none;stroke-width:5;stroke-linecap:round;stroke-linejoin:round;stroke-miterlimit:4;stroke-dasharray:none;stroke-dashoffset:0;stroke-opacity:1"
         inkscape:connector-curvature="0" />
      <rect
         ry="10"
         rx="10"
         y="704.31744"
         x="455.56665"
         height="150"
         width="100"
         id="rect4226"
         style="opacity:1;fill:#ffffff;fill-opacity:0.49803922;stroke:none;stroke-width:5;stroke-linecap:round;stroke-linejoin:round;stroke-miterlimit:4;stroke-dasharray:none;stroke-dashoffset:0;stroke-opacity:1" />
    </g>
  </g>
</svg>
